<?xml version="1.0" standalone="no"?>
<!DOCTYPE svg PUBLIC "-//W3C//DTD SVG 20010904//EN"
 "http://www.w3.org/TR/2001/REC-SVG-20010904/DTD/svg10.dtd">
<svg version="1.0" xmlns="http://www.w3.org/2000/svg"
 width="1280.000000pt" height="942.000000pt" viewBox="0 0 1280.000000 942.000000"
 preserveAspectRatio="xMidYMid meet">
<metadata>
Created by potrace 1.15, written by Peter Selinger 2001-2017
</metadata>
<g transform="translate(0.000000,942.000000) scale(0.100000,-0.100000)"
fill="#000000" stroke="none">
<path d="M3338 8560 c-1059 -41 -1900 -333 -2426 -844 -308 -299 -464 -640
-479 -1046 -9 -261 30 -458 136 -675 118 -241 294 -434 554 -608 291 -195 634
-310 1067 -358 153 -17 527 -14 706 5 447 48 896 177 1256 363 118 60 133 74
158 141 28 74 28 87 -5 160 l-27 61 -76 25 -75 26 -90 -41 c-325 -146 -637
-240 -967 -290 -195 -30 -585 -33 -760 -6 -388 60 -651 183 -870 406 -111 113
-150 170 -207 301 -95 220 -99 558 -11 810 123 349 411 641 847 859 411 206
856 304 1451 318 557 13 950 -53 1285 -216 330 -161 532 -386 634 -704 48
-150 64 -267 64 -467 0 -197 -17 -342 -67 -592 -18 -90 -316 -1231 -661 -2537
-694 -2625 -644 -2414 -589 -2528 28 -58 60 -88 108 -101 33 -10 421 36 501
58 120 34 236 170 315 371 11 28 50 148 86 267 138 457 291 831 560 1372 302
605 660 1233 1166 2043 979 1567 1728 2442 2237 2612 85 28 204 34 273 13 50
-15 122 -78 151 -132 34 -64 30 -225 -11 -416 -96 -444 -223 -847 -886 -2805
-319 -944 -478 -1528 -557 -2046 -30 -194 -33 -494 -6 -618 56 -258 156 -454
324 -632 141 -149 332 -263 530 -316 89 -24 115 -26 283 -27 154 0 202 4 287
22 383 83 697 271 1036 621 297 307 590 675 1128 1416 426 587 558 796 589
934 22 96 -9 309 -51 347 -25 22 -109 30 -130 12 -9 -7 -110 -152 -224 -323
-445 -662 -821 -1186 -1140 -1585 -482 -602 -881 -942 -1188 -1010 -31 -7 -96
-11 -154 -8 -91 3 -107 7 -176 41 -137 68 -241 215 -283 402 -24 104 -24 334
0 500 54 378 192 929 396 1581 115 365 190 588 420 1244 430 1224 523 1502
619 1854 79 288 95 377 95 531 0 113 -4 157 -23 230 -84 330 -315 559 -652
645 -351 90 -696 14 -1069 -235 -288 -193 -650 -543 -985 -955 -476 -584
-1162 -1623 -1849 -2802 -54 -93 -99 -168 -100 -168 -2 0 52 192 120 428 270
939 423 1604 463 2016 45 456 -55 859 -291 1178 -370 499 -1113 810 -2073 867
-261 16 -471 19 -687 11z"/>
</g>
</svg>
